<svg xmlns="http://www.w3.org/2000/svg" viewBox="0 0 58 58" enable-background="new 0 0 58 58"><path fill="#A98258" d="M48 0H10L0 16v42h58V16z"/><path d="M35 27H23c-1.1 0-2-.9-2-2s.9-2 2-2h12c1.1 0 2 .9 2 2s-.9 2-2 2z" fill="#5B4631"/><g fill="#E8D5B2"><path d="M37 51H21c-.552 0-1 .447-1 1s.448 1 1 1h16c.552 0 1-.447 1-1s-.448-1-1-1zM21 43c.256 0 .512-.098.707-.293L23 41.414V48c0 .553.448 1 1 1s1-.447 1-1v-6.586l1.293 1.293c.195.195.45.293.707.293s.512-.098.707-.293c.39-.39.39-1.023 0-1.414l-3-3c-.09-.092-.202-.165-.325-.216-.244-.1-.52-.1-.764 0-.123.05-.233.124-.326.217l-3 3c-.39.39-.39 1.022 0 1.413.196.195.452.293.708.293zM31 43c.256 0 .512-.098.707-.293L33 41.414V48c0 .553.448 1 1 1s1-.447 1-1v-6.586l1.293 1.293c.195.195.45.293.707.293s.512-.098.707-.293c.39-.39.39-1.023 0-1.414l-3-3c-.09-.092-.202-.165-.325-.216-.244-.1-.52-.1-.764 0-.123.05-.233.124-.326.217l-3 3c-.39.39-.39 1.022 0 1.413.196.195.452.293.708.293z"/></g><path fill="#DAAE86" d="M10 0L0 16h58L48 0z"/><path fill="#F4D5BD" d="M28 0h2v16h-2z"/></svg>