<svg xmlns="http://www.w3.org/2000/svg" viewBox="0 0 512 512" enable-background="new 0 0 512 512"><g fill="#C77C74"><path d="M283.854 172.668l41.16-153.606-33.81-9.06L252.81 167.53c10.997.847 21.32 2.598 31.044 5.14zM445.687 10.003L337.31 197.72c8.293 5.872 16.04 12.42 23.334 19.492l115.354-189.71-30.31-17.5z"/></g><path d="M337.31 197.72c-15.66-11.09-33.266-19.777-53.455-25.054l-.002.008c-9.725-2.542-20.048-4.295-31.042-5.142v-.005c-5.01-.386-10.16-.584-15.456-.584-88.13 0-135.837 54.923-174.126 115.698H411.48c-14.907-23.662-31.242-46.437-50.837-65.427-7.295-7.07-15.044-13.615-23.337-19.49l.004-.004z" fill="#FFFBEE"/><path d="M411.48 282.642H35.998c0 73.284 39.156 137.417 97.683 172.64h-.017V502H341.04V455.28h-.016c58.527-35.222 97.682-99.354 97.682-172.64H411.48z" fill="#FF435F"/><path d="M120.403 309.026H79.368c-5.522 0-10 4.477-10 10s4.478 10 10 10h41.035c5.522 0 10-4.477 10-10s-4.477-10-10-10zM149.397 309.03h-.287c-5.523 0-10 4.476-10 10 0 5.522 4.477 10 10 10h.287c5.523 0 10-4.478 10-10 0-5.525-4.478-10-10-10zM161.48 234.443h-.286c-5.523 0-10 4.477-10 10s4.477 10 10 10h.287c5.523 0 10-4.477 10-10s-4.476-10-10-10zM305.98 235.443h-.287c-5.522 0-10 4.477-10 10s4.478 10 10 10h.287c5.522 0 10-4.477 10-10s-4.477-10-10-10zM245.843 206.304h-.287c-5.523 0-10 4.477-10 10s4.477 10 10 10h.287c5.523 0 10-4.477 10-10s-4.478-10-10-10zM484.543 32.698c1.397-2.3 1.81-5.066 1.144-7.674-.667-2.607-2.357-4.836-4.688-6.182l-30.312-17.5c-4.785-2.763-10.9-1.122-13.66 3.66L333.975 183.496c-12.047-7.51-24.658-13.4-37.925-17.705l38.623-144.14c1.43-5.334-1.736-10.817-7.07-12.247l-33.81-9.06c-2.598-.696-5.37-.315-7.684 1.057-2.317 1.372-3.982 3.62-4.62 6.235L245.067 157.08c-2.55-.09-5.118-.136-7.712-.136-42.78 0-79.365 12.146-111.85 37.132-29.612 22.776-51.606 53.34-67.77 78.565H36.002c-5.52 0-10 4.478-10 10 0 37.12 9.765 73.635 28.236 105.597 16.96 29.346 40.89 54.344 69.43 72.594V502c0 5.523 4.478 10 10 10H341.04c5.523 0 10-4.477 10-10v-41.17c28.54-18.25 52.472-43.248 69.43-72.593 18.473-31.962 28.236-68.476 28.236-105.596 0-5.522-4.478-10-10-10H416.97c-11.438-17.853-25.81-38.358-43.725-56.907L484.543 32.698zm-35.195-9.035l12.79 7.385-103.715 170.568c-.784-.68-1.575-1.333-2.363-1.996-.49-.413-.974-.83-1.468-1.24-1.387-1.143-2.78-2.266-4.178-3.36l98.934-171.357zm-150.85-1.353l14.27 3.823L276.7 160.73c-3.77-.762-7.59-1.408-11.465-1.94L298.5 22.31zm37.37 424.4c-3.19 1.92-4.988 5.41-4.826 9.01V492H143.667v-36.13c.217-3.656-1.593-7.213-4.827-9.16-55.26-33.253-89.35-90.316-92.585-154.07h382.2c-3.237 63.754-37.327 120.818-92.586 154.07zM81.67 272.643c34.748-51.452 79.087-95.698 155.686-95.698 5.702 0 11.22.25 16.575.726.338.03.68.058 1.018.09.947.09 1.888.186 2.824.29.15.017.3.032.448.05 64.024 7.27 103.355 47.952 134.82 94.542H81.67z"/></svg>