<svg xmlns="http://www.w3.org/2000/svg" viewBox="0 0 54.819 54.819" enable-background="new 0 0 54.819 54.819"><path d="M11.217 19.913c-.335 0-.663-.17-.852-.476-.614-.995-1.76-2.146-3.078-2.104-.56-.03-1.014-.418-1.03-.97-.017-.552.417-1.013.97-1.03 2.106-.063 3.903 1.534 4.84 3.055.29.47.144 1.086-.326 1.376-.162.1-.344.15-.523.15z" fill="#436B1C"/><path d="M31.684 6.597C31.55 4.65 29.93 3.11 27.95 3.11h-.018c.035-.295.015-.607-.08-.932-.268-.914-1.072-1.616-2.018-1.73-.776-.09-1.488.187-1.987.68C23.372.698 22.75.43 22.06.43c-1.48 0-2.677 1.2-2.677 2.678v.014c-1.796.136-3.213 1.635-3.213 3.467 0 .28.037.55.1.81-2.14.09-3.848 1.848-3.848 4.01 0 .73.2 1.415.54 2.006-.656.54-1.076 1.36-1.076 2.276 0 .838.355 1.59.917 2.124 2.412-1.97 4.946 4.62 7.93 9.884.99 1.748 11.698-.114 12.55.972.973-.874 1.6-16.094 1.628-17.43.043-2.146-1.32-3.976-3.226-4.645z" fill="#88C057"/><path d="M33.053 26.533l.713-.427c1.32-.792 2.968-.792 4.287 0l.713.427c1.32.792 2.968.792 4.287 0l2.015-.896c.296-.826.502-1.424.584-1.69 1.88-6.046 3.09-12.413 3.256-18.764.066-2.554-2.046-6.537-5.555-4.727-3.45 1.778-5.92 8.597-7.655 11.835-2.466 4.602-4.416 9.606-5.805 14.705 1.058.267 2.196.116 3.16-.462z" fill="#EEAF4B"/><path d="M7.055 25.506l1.345.807c1.545.927 3.475.927 5.02 0l.346-.208c1.32-.792 2.968-.792 4.287 0l.713.427c.775.465 1.663.65 2.53.568.64-2.067.426-4.65-.566-6.4-3.336-5.885-6.11-4.686-8.78-2.13-.513.49-1.14.848-1.82 1.043-2.93.837-5.09 2.206-3.86 5.934.216-.158.518-.2.785-.04z" fill="#ED3F32"/><path d="M35.592 24.356c-.106 0-.215-.017-.32-.053-.524-.178-.804-.746-.626-1.27.667-1.96 2.81-3.01 4.768-2.35.92.312 1.92-.182 2.232-1.1.177-.524.743-.806 1.27-.627.522.178.802.746.624 1.27-.666 1.962-2.806 3.016-4.768 2.35-.918-.31-1.92.184-2.232 1.1-.143.42-.532.68-.948.68zM37.957 17.39c-.106 0-.215-.018-.32-.054-.524-.178-.804-.746-.626-1.27.324-.95.998-1.72 1.898-2.163.9-.444 1.92-.51 2.87-.188.922.314 1.92-.18 2.233-1.1.178-.525.746-.806 1.27-.627.522.178.802.746.624 1.27-.666 1.963-2.806 3.015-4.768 2.352-.445-.152-.923-.12-1.344.087s-.736.567-.888 1.013c-.14.417-.53.68-.947.68zM40.323 10.42c-.106 0-.215-.016-.322-.052-.522-.178-.802-.746-.624-1.27.584-1.72 2.463-2.645 4.185-2.063.33.112.683.09.994-.063.31-.153.544-.42.656-.748.177-.523.744-.804 1.27-.626.522.178.802.746.624 1.27-.284.834-.875 1.51-1.665 1.898-.792.39-1.687.447-2.522.164-.678-.23-1.418.134-1.648.813-.142.416-.53.678-.947.678z" fill="#A46F3E"/><path d="M23.37 14.095c-.945 1.257-2.436 2.745-1.862 5.373l1.544 7.065.714-.427c1.32-.792 2.968-.792 4.287 0l.713.427c.58.348 1.127.463 1.127.463 1.042-3.823 2.4-7.593 4.052-11.18-.774-1.935-2.427-2.583-3.627-3.246l-.02-.01c-.76-.436-.806-1.475-.235-2.137.225-.26.33-.62.25-.98l-.12-.552c-.133-.607-.74-.995-1.346-.862L22.77 9.354c-.608.133-.996.74-.863 1.346l.12.552c.08.368.335.653.657.792.74.32 1.19 1.144.812 1.855-.036.066-.078.13-.126.195z" fill="#DAE7EF"/><path d="M29.746 10.9l-6.88 1.502c-.758.166-1.516-.32-1.682-1.08l-.1-.45c-.165-.76.32-1.518 1.08-1.684l6.88-1.503c.758-.166 1.516.32 1.682 1.08l.1.45c.165.76-.32 1.518-1.08 1.684z" fill="#fff"/><path d="M46.816 25.332l-1.745 25.03c-.127 2.498-2.19 4.458-4.692 4.458h-28.07c-2.503 0-4.566-1.96-4.694-4.46L5.91 26.154c-.028-.57.59-.94 1.078-.647l1.345.807c1.545.927 3.475.927 5.02 0l.346-.208c1.32-.792 2.967-.792 4.286 0l.713.428c1.32.792 2.967.792 4.286 0l.713-.428c1.32-.792 2.967-.792 4.286 0l.713.428c1.32.792 2.967.792 4.286 0l.713-.428c1.32-.792 2.967-.792 4.286 0l.713.428c1.32.792 2.967.792 4.286 0l3.387-1.505c.215-.096.455.07.443.304z" fill="#FBD490"/><path d="M17.91 42h-7c-.552 0-1-.447-1-1s.448-1 1-1h7c.552 0 1 .447 1 1s-.448 1-1 1zM19.91 46h-9c-.552 0-1-.447-1-1s.448-1 1-1h9c.552 0 1 .447 1 1s-.448 1-1 1zM21.91 50h-11c-.552 0-1-.447-1-1s.448-1 1-1h11c.552 0 1 .447 1 1s-.448 1-1 1zM27.91 50h-2c-.552 0-1-.447-1-1s.448-1 1-1h2c.552 0 1 .447 1 1s-.448 1-1 1z" fill="#E0B877"/></svg>