<svg width="98" height="49" viewBox="0 0 98 49" xmlns="http://www.w3.org/2000/svg"><title>Rectangle 1 + 待帮助</title><desc>Created with Sketch.</desc><g fill="none" fill-rule="evenodd"><g><path d="M0 0h98v49L49 24.5 0 0z" fill="#1AAD19"/><path d="M64.042 13.63c-.728 0-1.384.01-1.967.028-.583.02-1.057.05-1.42.098v-1.218c.372.047.858.08 1.455.098.597.02 1.24.028 1.932.028.69 0 1.34-.01 1.946-.028.607-.02 1.092-.05 1.456-.098v1.218c-.364-.047-.85-.08-1.456-.098-.607-.02-1.255-.028-1.946-.028zM61.9 16.01c-.55.01-1.113.023-1.687.042-.574.02-1.155.05-1.743.098v-1.274c.364.028.735.05 1.113.063.378.013.79.027 1.232.04.443.015.93.024 1.463.03.532.004 1.134.006 1.806.006.672 0 1.274-.002 1.806-.007.532-.006 1.02-.015 1.463-.03.443-.013.854-.027 1.232-.04.378-.015.75-.036 1.113-.064v1.274c-.653-.047-1.297-.082-1.932-.105-.635-.023-1.274-.035-1.918-.035v3.234c0 .13.01.236.028.315.02.078.068.14.147.18.08.043.196.07.35.078.154.01.37.014.65.014s.512-.023.694-.07c.182-.047.33-.133.448-.26.117-.125.212-.3.287-.524.075-.224.145-.518.21-.882.16.168.355.317.588.448.233.13.457.233.672.308-.13.448-.26.805-.392 1.07-.13.267-.3.472-.504.617-.205.144-.47.24-.79.286-.323.047-.74.07-1.254.07-.44 0-.803-.02-1.092-.056-.29-.037-.525-.1-.707-.19-.182-.088-.31-.202-.385-.342-.075-.14-.112-.317-.112-.532V16.01h-1.624c-.028.85-.12 1.566-.273 2.15-.155.582-.393 1.077-.715 1.483-.322.406-.742.744-1.26 1.015-.518.27-1.146.518-1.883.742-.093-.187-.217-.397-.37-.63-.155-.233-.32-.448-.498-.644.68-.112 1.265-.257 1.75-.434.485-.177.882-.422 1.19-.735.308-.313.534-.707.68-1.183.144-.476.216-1.064.216-1.764zm1.862-5.838c-.065-.26-.142-.525-.23-.79-.09-.267-.185-.493-.288-.68l1.4-.252c.075.27.156.55.245.84.088.29.193.583.314.882.616 0 1.146-.002 1.59-.007.442-.005.827-.012 1.154-.02.327-.01.61-.017.847-.022.238-.005.47-.016.693-.035v2.744h-1.162v-1.666h-8.512v1.848h-1.162v-2.926c.243.02.5.033.77.042.27.01.597.016.98.02.383.006.842.01 1.38.015.536.005 1.196.007 1.98.007zm17.696.756c-.112-.3-.23-.572-.357-.82-.125-.246-.28-.49-.468-.734l1.106-.532c.168.224.334.476.497.756.163.28.296.532.4.756l-1.177.574zm-7.224 1.316v1.946c.86 0 1.598-.01 2.22-.028.62-.02 1.028-.05 1.224-.098l-.196 3.766c-.02.252-.06.462-.126.63-.065.168-.18.31-.343.427-.163.117-.394.22-.693.308-.3.09-.69.19-1.176.3-.01-.204-.05-.41-.12-.615-.07-.205-.202-.476-.398-.812.364.065.66.105.89.12.228.013.41 0 .545-.043.136-.042.23-.117.28-.224.052-.106.078-.244.078-.412l.126-2.422H74.22c-.02.784-.054 1.447-.105 1.988-.05.54-.128 1.03-.23 1.463-.104.434-.24.845-.414 1.232-.172.386-.39.818-.65 1.294-.177-.13-.366-.247-.567-.35-.2-.103-.422-.177-.665-.224.224-.28.422-.565.595-.854.173-.29.32-.61.44-.96.122-.35.22-.748.295-1.196.075-.448.128-.975.16-1.582.034-.607.048-1.302.043-2.086-.004-.784-.025-1.694-.062-2.73.252.037.79.07 1.61.098.82.028 2.03.042 3.626.042-.047-.44-.086-.884-.12-1.337-.032-.453-.062-.86-.09-1.225.215.037.446.065.693.084.247.02.474.02.68 0 .158-.02.25-.005.28.042.027.047-.02.135-.14.266-.066.075-.108.3-.127.68-.02.377-.02.874 0 1.49.635 0 1.185-.005 1.652-.014.467-.01.866-.02 1.197-.035.33-.014.603-.028.818-.042.215-.013.387-.03.518-.048v1.302c-.27-.028-.75-.058-1.435-.09-.685-.034-1.588-.05-2.708-.05.02.355.05.728.098 1.12.047.392.105.784.175 1.176.07.392.154.777.252 1.155s.212.73.343 1.057c.3-.532.54-1.094.72-1.687.183-.593.33-1.225.442-1.897.224.12.443.226.658.315.215.09.434.166.658.23.243.076.243.16 0 .253-.028.01-.063.044-.105.105-.042.062-.086.132-.133.21-.047.08-.09.164-.126.253-.037.09-.07.17-.098.245-.177.58-.38 1.122-.61 1.63-.228.51-.505 1.002-.832 1.478.41.663.75 1.16 1.022 1.49.27.332.49.514.658.547.168.033.294-.075.378-.322.084-.246.154-.617.21-1.112.187.233.387.43.602.588.215.16.41.252.588.28-.205.616-.387 1.092-.546 1.428-.16.336-.324.555-.497.658-.174.103-.367.105-.582.007-.215-.1-.485-.28-.812-.54-.13-.103-.273-.233-.427-.392-.155-.16-.31-.33-.47-.518-.16-.187-.313-.38-.462-.58-.15-.202-.28-.39-.392-.568-.364.43-.786.85-1.267 1.26-.482.41-1.03.826-1.646 1.246-.103-.233-.24-.436-.413-.61-.172-.172-.347-.295-.524-.37.728-.327 1.363-.702 1.904-1.127.54-.424 1.013-.897 1.414-1.42-.168-.355-.31-.68-.427-.98-.117-.3-.22-.644-.308-1.036-.09-.392-.178-.866-.267-1.42-.09-.556-.19-1.273-.3-2.15h-4.16z" fill="#fff"/></g></g></svg>