<svg width="98" height="49" viewBox="0 0 98 49" xmlns="http://www.w3.org/2000/svg"><title>Rectangle 1 + 待帮助</title><desc>Created with Sketch.</desc><g fill="none" fill-rule="evenodd"><g><path d="M0 0h98v49L49 24.5 0 0z" fill="#4A4A4A"/><path d="M60.758 13.826v-3.164h-3.654c-.98 0-1.88.012-2.702.035-.82.023-1.465.058-1.932.105V9.36c.196.02.455.037.777.056.322.02.69.035 1.106.05.415.013.868.025 1.358.034.49.01 1.01.014 1.562.014 1.204 0 2.21-.014 3.017-.042.806-.028 1.42-.065 1.84-.112-.028.224-.05.518-.07.882-.02.364-.028.79-.028 1.274v2.156c0 .336.01.677.028 1.022.02.345.047.69.084 1.036h-1.386v-.84H54.43v3.584c0 .26.012.464.035.61.023.144.086.253.19.328.102.075.265.124.49.147.223.022.54.04.95.048.58.02 1.15.03 1.716.035.566.005 1.123-.002 1.674-.02.513-.01.92-.036 1.218-.078.3-.042.54-.133.72-.273.183-.14.33-.355.442-.644.112-.29.243-.69.392-1.204.3.467.723.77 1.274.91-.196.58-.378 1.03-.546 1.358-.168.327-.387.574-.658.742-.27.168-.628.273-1.07.315-.444.04-1.044.062-1.8.062H57.74c-.61 0-1.177-.01-1.7-.028-.7-.028-1.244-.065-1.63-.112-.388-.047-.675-.142-.862-.287-.187-.145-.3-.357-.336-.637-.037-.28-.056-.663-.056-1.148v-4.018c0-.504-.014-.93-.042-1.274-.028-.345-.06-.597-.098-.756.233.028.485.05.756.063.27.014.523.016.756.007.13-.01.205.02.224.09.02.07-.02.134-.112.19-.084.047-.14.103-.168.168-.028.065-.042.168-.042.308v.448h6.328zm11.326 2.492c-.215.588-.464 1.113-.75 1.575-.284.462-.624.89-1.02 1.288-.398.398-.87.77-1.415 1.12-.547.35-1.19.708-1.926 1.072-.16-.252-.334-.485-.525-.7-.192-.215-.41-.397-.652-.546.597-.084 1.183-.26 1.757-.525.574-.265 1.1-.596 1.575-.993.476-.397.89-.847 1.246-1.35.355-.505.62-1.037.798-1.597-1.045.01-1.974.026-2.786.05-.812.022-1.517.053-2.114.09v-1.274c.625.047 1.358.082 2.198.105.84.024 1.81.036 2.912.036.047-.345.082-.72.105-1.127.022-.407.04-.825.048-1.254H68.64c-.13.27-.275.553-.434.847-.16.294-.317.576-.476.847-.177-.112-.366-.194-.567-.245-.2-.05-.408-.086-.623-.105.26-.373.488-.733.68-1.078.19-.345.356-.688.496-1.03.14-.34.254-.685.343-1.035.088-.35.16-.716.216-1.1.112.048.238.09.378.127.14.037.275.07.406.098.13.028.252.05.364.063.112.014.205.02.28.02.093-.008.142.008.147.05.006.042-.03.09-.104.147-.13.103-.25.254-.357.455-.108.2-.232.51-.372.93h2.52c0-.634-.007-1.154-.02-1.56-.015-.406-.036-.758-.064-1.057.27.037.523.065.756.084.233.02.467.023.7.014.16 0 .247.02.266.056.02.037-.005.084-.07.14-.056.047-.107.114-.154.203-.047.09-.084.22-.112.392-.028.172-.05.396-.07.67-.02.276-.033.63-.042 1.058.495 0 .936-.002 1.323-.007.388-.004.736-.01 1.044-.02.308-.01.593-.023.854-.042l.756-.056v1.26c-.233-.02-.478-.035-.735-.05-.258-.013-.545-.027-.862-.04-.317-.015-.672-.024-1.064-.03-.392-.004-.84-.006-1.344-.006-.01.448-.028.882-.056 1.302-.028.42-.06.78-.098 1.078 1.13 0 2.12-.012 2.975-.035.855-.022 1.595-.057 2.22-.104V15.8c-.616-.037-1.337-.068-2.163-.09-.826-.024-1.785-.04-2.877-.05.243.625.523 1.157.84 1.596.317.44.714.835 1.19 1.19.327.243.772.453 1.337.63s1.272.308 2.12.392c-.27.187-.47.408-.6.665-.132.257-.234.562-.31.917-.335-.103-.683-.224-1.042-.364-.36-.14-.707-.3-1.043-.476-.336-.177-.65-.366-.945-.567-.294-.2-.54-.413-.735-.637-.308-.345-.576-.737-.805-1.176-.23-.44-.436-.943-.623-1.512zm10.724-3.29c.187.047.173.135-.042.266-.047.028-.117.09-.21.182-.093.093-.224.238-.392.434s-.385.457-.65.784c-.267.327-.596.737-.988 1.232-.28-.308-.593-.58-.938-.812.513-.392.96-.82 1.337-1.288.378-.467.66-.938.847-1.414.177.13.37.26.574.385.205.126.36.203.462.23zm2.758 2.128c-.13-.177-.287-.37-.47-.574-.18-.205-.37-.406-.566-.602-.196-.196-.387-.373-.574-.532-.187-.16-.35-.28-.49-.364l.896-.672c.308.327.632.644.973.952.34.308.698.61 1.07.91l-.84.882zm.644-3.094c-.495-.047-1-.077-1.512-.09-.513-.015-1.05-.022-1.61-.022-.72 0-1.328.014-1.827.042-.498.028-.92.056-1.266.084v-1.302c.345.047.756.082 1.232.105.476.022 1.106.034 1.89.034.597 0 1.15-.012 1.66-.035.508-.024.986-.06 1.434-.106v1.288zm-3.22-1.512c-.047-.233-.117-.49-.21-.77-.093-.28-.205-.583-.336-.91l1.316-.336c.084.243.187.52.308.833.12.313.238.59.35.833l-1.428.35zm.35 6.118c.16-.308.296-.63.413-.966.117-.336.203-.644.26-.924.195.14.4.28.615.42.215.14.364.22.448.238.075.02.107.05.098.09-.01.043-.056.087-.14.134-.02.01-.044.037-.077.084-.033.047-.077.12-.133.224l-.217.406c-.09.168-.194.378-.315.63l-.09.175-.106.188c.336.327.646.64.93.938.286.3.52.555.708.77l-.924.798c-.177-.27-.378-.54-.602-.812-.224-.27-.457-.54-.7-.812-.877 1.232-1.82 2.217-2.828 2.954-.103-.177-.245-.345-.427-.504-.182-.16-.39-.29-.623-.392.27-.13.532-.275.784-.434.252-.16.504-.348.756-.567.252-.22.51-.474.777-.763.266-.29.544-.63.833-1.022-.336-.327-.663-.618-.98-.875-.317-.257-.597-.455-.84-.595l.784-.756c.243.187.502.397.777.63.276.233.55.48.82.742zm4.564-4.396c-.14.3-.273.572-.4.82-.125.246-.267.5-.426.762-.177-.103-.352-.187-.525-.252-.173-.065-.352-.12-.54-.168.533-.756.962-1.547 1.29-2.373.326-.825.55-1.644.67-2.456.216.075.456.147.722.217.266.07.488.115.665.134.224.028.224.12 0 .28-.047.028-.09.07-.133.126-.042.056-.098.152-.168.287-.07.135-.16.327-.267.574-.107.248-.25.573-.427.974.607 0 1.12-.005 1.54-.014.42-.01.775-.02 1.064-.035.29-.014.523-.028.7-.042.177-.014.33-.035.462-.063v1.316c-.196-.028-.397-.047-.602-.056-.205-.01-.434-.02-.686-.028-.047.812-.105 1.52-.175 2.128-.07.607-.162 1.143-.274 1.61-.112.467-.243.882-.392 1.246-.15.364-.327.705-.532 1.022.448.42.936.772 1.463 1.057.527.285 1.02.483 1.477.595-.196.187-.387.418-.574.693-.187.275-.317.52-.392.735-.15-.075-.334-.19-.553-.343-.22-.154-.453-.33-.7-.532-.247-.2-.49-.413-.728-.637-.238-.224-.455-.443-.65-.658-.42.467-.934.917-1.54 1.35-.608.435-1.252.8-1.933 1.1-.112-.168-.245-.336-.4-.504-.153-.168-.323-.322-.51-.462.7-.224 1.37-.537 2.01-.938.638-.4 1.21-.882 1.714-1.442-.336-.58-.614-1.21-.833-1.89-.22-.68-.38-1.325-.483-1.932l1.078-.336c.01.196.042.436.098.72.056.286.124.582.203.89.078.308.167.61.265.903.098.294.203.553.315.777.27-.532.476-1.213.616-2.044.14-.83.23-1.867.266-3.108h-1.778z" fill="#fff"/></g></g></svg>