<svg width="98" height="49" viewBox="0 0 98 49" xmlns="http://www.w3.org/2000/svg"><title>Rectangle 1 + 待帮助</title><desc>Created with Sketch.</desc><g fill="none" fill-rule="evenodd"><g><path d="M0 0h98v49L49 24.5 0 0z" fill="#84C2E7"/><path d="M53.534 15.842c-.26.308-.504.586-.728.833-.224.247-.406.44-.546.58-.075-.186-.166-.363-.273-.53-.107-.17-.24-.323-.4-.463.45-.327.862-.707 1.24-1.14.378-.435.702-.843.973-1.226.308-.43.562-.8.763-1.113.2-.313.38-.61.54-.89.158.188.316.346.475.477.16.13.3.233.42.308.084.047.124.1.12.16-.006.062-.06.1-.162.12-.056.02-.187.138-.392.357-.205.22-.495.567-.868 1.043v7.112h-1.302c.065-.392.105-.768.12-1.127.013-.36.02-.75.02-1.17v-3.33zm4.088 4.018c-.056-.392-.13-.775-.224-1.148-.093-.373-.205-.7-.336-.98l1.218-.294c.112.3.222.628.33.987.106.36.21.726.314 1.1l-1.302.335zM56.04 9.486c.15.056.222.112.217.168-.005.056-.086.103-.245.14-.037.01-.08.028-.126.056-.047.028-.12.086-.217.175-.1.09-.227.217-.386.385-.16.168-.37.397-.63.686-.26.28-.565.593-.91.938l-1.008 1.008c-.112-.205-.224-.373-.336-.504-.112-.13-.257-.252-.434-.364.177-.13.357-.278.54-.44.18-.164.356-.33.524-.498.168-.168.322-.334.462-.497.14-.164.26-.31.364-.442.252-.327.462-.61.63-.854.168-.243.29-.457.364-.644.196.15.4.282.61.4.21.116.403.21.58.286zm3.234 2.184c-.58.02-1.087.04-1.526.063-.44.023-.83.058-1.176.105v-1.33c.355.037.75.065 1.19.084.44.02.943.033 1.512.042 0-.476-.012-.896-.035-1.26-.024-.364-.05-.62-.078-.77.205.028.43.047.672.056.243.01.485.014.728.014s.26.075.056.224c-.056.047-.1.12-.133.217-.033.098-.05.19-.05.273v1.246c.654-.01 1.22-.023 1.702-.042.48-.02.908-.047 1.28-.084v1.288c-.372-.037-.8-.065-1.28-.084-.48-.02-1.048-.033-1.7-.042v1.652c.456 0 .872-.002 1.245-.007.373-.005.72-.012 1.036-.02.317-.01.614-.024.89-.043.274-.02.538-.037.79-.056v1.302c-.327-.028-.663-.05-1.008-.07-.345-.02-.733-.033-1.162-.042v1.456c.196 0 .394-.002.595-.007.2-.005.387-.014.56-.028.173-.014.327-.03.462-.05.135-.018.236-.04.3-.07v1.317c-.14-.028-.393-.05-.762-.07-.37-.02-.754-.028-1.155-.028v3.164c0 .28-.02.506-.056.68-.037.172-.135.314-.294.426-.16.112-.394.2-.707.266-.312.065-.743.126-1.294.182-.028-.243-.082-.46-.16-.65-.08-.192-.218-.423-.414-.694.373.028.674.04.903.035.23-.005.406-.03.532-.077s.21-.12.252-.224c.04-.103.062-.233.062-.392v-2.716h-3.15c-.205 0-.413.002-.623.007l-.59.014c-.18.005-.342.014-.482.028-.14.014-.247.026-.322.035v-1.302c.177.047.453.084.826.112.373.028.77.042 1.19.042h3.15v-1.47c-1.12 0-2.09.014-2.912.042-.82.028-1.526.07-2.114.126v-1.344c.44.037.91.065 1.414.084.504.02 1.115.033 1.834.042V11.67zm10.402 5.572c.196-.308.383-.658.56-1.05.177-.392.336-.805.476-1.24.14-.433.26-.874.357-1.322.097-.448.16-.882.188-1.302h-2.744c-.252.69-.518 1.32-.798 1.89l1.092-.07c.02.56.103 1.106.252 1.638.15.532.355 1.017.616 1.456zm1.05-5.908c.467 0 .833-.002 1.1-.007.265-.005.5-.012.706-.02-.243 1.632-.553 3.004-.93 4.115-.38 1.11-.815 2.002-1.31 2.674.355.364.75.665 1.19.903.44.237.97.417 1.596.538.625.12 1.372.19 2.24.21.868.02 1.904-.005 3.108-.07-.075.103-.138.205-.19.308-.05.103-.095.212-.132.33-.037.116-.072.24-.105.37-.034.13-.064.28-.092.448-1.195.01-2.233-.023-3.115-.098-.882-.075-1.652-.2-2.31-.378-.658-.177-1.22-.41-1.687-.7-.467-.29-.882-.644-1.246-1.064-.448.467-.896.896-1.344 1.288-.448.392-.882.75-1.302 1.078-.047-.075-.117-.16-.21-.26-.093-.097-.196-.197-.308-.3-.112-.103-.23-.2-.357-.294-.127-.093-.246-.177-.358-.252.233-.056.47-.133.714-.23.243-.1.497-.227.763-.386.265-.16.545-.357.84-.595.293-.238.613-.525.958-.86-.26-.43-.495-.934-.7-1.513-.205-.58-.42-1.283-.644-2.114-.16.327-.32.637-.483.93-.162.295-.328.577-.496.848-.16-.13-.33-.252-.518-.364-.187-.112-.37-.21-.546-.294.364-.4.698-.884 1-1.45.304-.564.575-1.156.813-1.777.238-.622.434-1.242.588-1.863.155-.62.265-1.183.33-1.687.112.047.23.096.357.147.126.05.25.098.37.14.122.042.23.077.323.105.093.028.163.047.21.056.13.02.203.054.217.105.014.05-.03.105-.133.16-.075.048-.163.164-.266.35-.103.188-.19.43-.266.73-.037.13-.075.256-.112.377-.037.12-.08.243-.126.364h1.862zm3.85 5.824c0 .868.042 1.587.126 2.156h-1.344c.037-.28.063-.6.077-.96.014-.358.02-.757.02-1.196v-6.622c0-.392-.008-.74-.027-1.043-.02-.303-.05-.534-.098-.693.243.047.49.082.742.105.252.023.457.03.616.02.13-.008.205.013.224.064.02.05-.037.11-.168.174-.075.037-.12.096-.14.175-.02.078-.028.174-.028.286v2.226c.588.336 1.167.684 1.736 1.043.57.36 1.2.786 1.89 1.28l-.854 1.177c-.42-.373-.868-.754-1.344-1.14-.476-.388-.952-.736-1.428-1.044v3.99zM88.66 15.03h1.82v-1.862h-1.82v1.862zm-1.064-1.862h-1.75v1.862h1.75v-1.862zm0-2.632h-1.75v1.75h1.75v-1.75zm1.064 1.75h1.82v-1.75h-1.82v1.75zm0 7.504c.803-.01 1.503-.023 2.1-.042.597-.02 1.13-.042 1.596-.07v1.19c-.523-.047-1.127-.08-1.813-.098-.686-.02-1.505-.028-2.457-.028-.96 0-1.815.01-2.562.028-.747.02-1.377.05-1.89.098v-1.19c.476.028 1.043.05 1.7.07.66.02 1.413.033 2.262.042v-1.54c-.58 0-1.09.012-1.533.035-.443.023-.828.058-1.155.105v-1.204c.336.047.726.082 1.17.105.442.024.95.04 1.518.05v-1.4c-.504 0-.924.005-1.26.014-.336.01-.61.016-.826.02-.215.006-.38.013-.497.022-.117.01-.212.02-.287.028.01-.196.02-.42.028-.672.01-.252.02-.523.028-.812.01-.29.016-.586.02-.89.006-.302.008-.608.008-.916 0-.317-.002-.637-.007-.96-.005-.32-.012-.627-.02-.916-.01-.29-.02-.55-.03-.784-.008-.233-.018-.425-.027-.574.084.02.198.035.343.05.144.013.344.025.6.034.258.01.587.016.988.02.4.006.91.008 1.526.008.597 0 1.1-.002 1.505-.007.405-.005.74-.012 1-.02.26-.01.462-.022.602-.036.14-.015.252-.03.336-.05-.01.16-.02.355-.028.588-.01.233-.016.492-.02.777-.006.285-.01.588-.015.91-.005.322-.007.642-.007.96 0 .298.002.6.007.902.005.303.012.597.02.882.01.284.022.557.036.818.015.26.027.49.036.686-.093-.02-.203-.033-.33-.042-.125-.01-.298-.02-.517-.028-.22-.01-.5-.014-.84-.014h-1.31v1.4c.616-.01 1.162-.026 1.638-.05.476-.022.882-.057 1.218-.104v1.204c-.345-.047-.754-.08-1.225-.098-.47-.02-1.014-.033-1.63-.042v1.54zm-7.056-8.89c-.336.01-.642.023-.917.042-.275.02-.51.037-.707.056V9.822c.504.056 1.237.084 2.198.084.476 0 .9-.007 1.274-.02.373-.015.68-.036.924-.064v1.176c-.196-.02-.436-.037-.72-.056-.286-.02-.605-.037-.96-.056v2.996c.317-.01.604-.02.86-.035.258-.014.48-.035.666-.063v1.19c-.187-.02-.408-.037-.665-.056-.257-.02-.544-.033-.86-.042v3.332c.53-.187 1.04-.406 1.525-.658-.037.252-.058.462-.063.63-.006.168.006.37.034.602-.877.26-1.666.548-2.366.86-.7.314-1.302.638-1.806.974 0-.12-.01-.26-.028-.413-.02-.154-.044-.308-.077-.462-.033-.153-.072-.302-.12-.447-.046-.145-.097-.273-.153-.385.3-.02.61-.056.938-.112.327-.056.667-.135 1.022-.238v-3.682c-.336.01-.637.02-.903.035-.265.015-.5.036-.706.064v-1.19c.205.028.44.05.707.07.267.02.568.033.904.042V10.9z" fill="#fff"/></g></g></svg>