<svg width="98" height="49" viewBox="0 0 98 49" xmlns="http://www.w3.org/2000/svg"><title>Rectangle 1</title><desc>Created with Sketch.</desc><g fill="none" fill-rule="evenodd"><g><path d="M0 0h98v49L49 24.5 0 0z" fill="#E64340"/><path d="M67.99 21.61c-.68-.513-1.398-.975-2.15-1.386-.75-.41-1.532-.78-2.344-1.106l.7-.868c.83.327 1.62.68 2.366 1.057.747.378 1.465.796 2.156 1.253l-.728 1.05zm-5.46-3.43c-.093.215-.152.418-.175.61-.023.19-.016.36.02.51-1.1.177-2.01.35-2.73.518-.718.168-1.26.33-1.623.49-.028-.187-.08-.408-.154-.665-.075-.257-.163-.492-.266-.707.196 0 .43-.01.7-.028.27-.02.6-.056.987-.112.386-.056.844-.133 1.37-.23.528-.1 1.15-.227 1.87-.386zm5.446.392c-.215-.14-.455-.28-.72-.42-.267-.14-.542-.275-.827-.406-.286-.13-.568-.252-.848-.364-.28-.112-.537-.205-.77-.28l.574-.854c.532.187 1.087.408 1.666.665.58.257 1.097.506 1.554.75l-.63.91zM59.338 13.7c-.187.01-.397.033-.63.07-.233.037-.415.08-.546.126-.028-.196-.075-.4-.14-.616-.065-.215-.135-.392-.21-.532.15-.075.31-.205.483-.392.173-.187.36-.443.56-.77.2-.327.422-.73.665-1.21.243-.482.513-1.053.812-1.716.215.187.425.34.63.462.205.12.383.205.532.252.103.037.156.082.16.133.006.05-.043.1-.146.147-.093.047-.182.103-.266.168-.084.065-.205.203-.364.413-.16.21-.37.523-.637.938-.265.415-.627.987-1.084 1.715l1.82-.028c.243-.448.43-.826.56-1.134.13-.308.233-.57.308-.784.196.177.39.33.58.462.192.13.35.22.47.266.224.103.22.187-.014.252-.056.02-.133.08-.23.182-.1.103-.255.306-.47.61-.215.302-.506.734-.875 1.294-.37.56-.847 1.307-1.435 2.24.4-.028.803-.075 1.204-.14.4-.065.817-.16 1.246-.28-.037.16-.056.33-.056.51 0 .183.01.344.028.484l-1.904.308c-.364.047-.674.105-.93.175-.258.07-.503.156-.736.26-.028-.216-.075-.44-.14-.673-.065-.233-.14-.43-.224-.588.112-.028.23-.082.35-.16.12-.08.266-.213.434-.4.168-.187.364-.446.588-.777.224-.33.49-.768.798-1.31l-1.19.043zm6.888 1.134c-.467.4-.94.75-1.42 1.05-.482.3-.988.565-1.52.798-.12-.16-.247-.3-.378-.427-.13-.126-.28-.25-.448-.37.607-.178 1.183-.42 1.73-.722.545-.303 1.02-.632 1.42-.987-.43-.532-.79-1.167-1.078-1.904-.187.29-.387.586-.602.89-.215.302-.43.6-.644.888-.14-.112-.3-.215-.483-.308-.182-.093-.362-.173-.54-.238.28-.224.566-.516.855-.875.29-.36.562-.76.82-1.198.256-.44.49-.898.7-1.38.21-.48.38-.944.51-1.392.215.13.434.243.658.336.224.093.43.16.616.196.27.056.294.15.07.28-.103.056-.226.166-.37.33-.146.162-.31.393-.498.692h3.906c-.42.756-.838 1.44-1.253 2.05-.415.612-.847 1.147-1.295 1.604.4.308.873.56 1.414.756.54.196 1.21.364 2.002.504-.187.187-.343.394-.47.623-.125.23-.216.456-.272.68-.737-.252-1.386-.53-1.946-.833-.56-.303-1.055-.65-1.484-1.043zm.084-1.33c.168-.177.317-.343.448-.497.13-.154.254-.313.37-.476.118-.162.23-.33.337-.503.107-.173.222-.366.343-.58h-2.73c.056.176.128.36.217.552.09.19.19.38.3.566.113.187.232.362.358.525.126.164.245.302.357.414zm12.754-.532c.625 0 1.155-.002 1.59-.007.433-.005.802-.014 1.105-.028.302-.014.557-.028.762-.042.205-.014.392-.035.56-.063v1.316c-.16-.01-.34-.023-.546-.042-.205-.02-.462-.033-.77-.042-.308-.01-.68-.02-1.12-.028-.44-.01-.966-.014-1.582-.014v5.404c1.195 0 2.224-.016 3.087-.05.864-.032 1.548-.07 2.052-.118v1.456c-.26-.02-.572-.035-.93-.05-.36-.013-.79-.027-1.29-.04-.498-.015-1.077-.027-1.735-.036-.658-.01-1.42-.014-2.29-.014-.886 0-1.653.002-2.302.007-.65.006-1.213.015-1.694.03-.48.013-.893.027-1.238.04-.345.015-.658.036-.938.064v-1.456c.364.047.733.08 1.106.098.373.02.728.033 1.064.042V13.49c0-.775-.042-1.386-.126-1.834.103.02.222.033.357.042.135.01.275.016.42.02l.413.015c.13.005.238.007.322.007.112 0 .175.028.19.084.013.056-.03.107-.134.154-.075.037-.126.098-.154.182-.028.084-.042.182-.042.294v6.972h2.618v-7.77c0-.58-.016-1.057-.05-1.435-.032-.377-.08-.72-.146-1.028.12.02.26.035.413.05.154.013.31.022.47.027l.468.013c.154.005.287.002.4-.007.13-.01.202.02.216.084.013.065-.045.13-.176.196-.103.047-.187.14-.252.28s-.098.29-.098.448v2.688z" fill="#fff"/></g></g></svg>