<svg width="98" height="49" viewBox="0 0 98 49" xmlns="http://www.w3.org/2000/svg"><title>Rectangle 1</title><desc>Created with Sketch.</desc><g fill="none" fill-rule="evenodd"><g><path d="M0 0h98v49L49 24.5 0 0z" fill="#F6A623"/><path d="M58.52 13.252c0 .42.005.81.014 1.17.01.358.023.757.042 1.196H57.4c.02-.44.033-.838.042-1.197.01-.358.014-.748.014-1.168V10.41c0-.215-.002-.425-.007-.63-.006-.205-.017-.36-.036-.462.27.02.588.033.952.042.364.01.79.014 1.274.014.485 0 .912-.005 1.28-.014.37-.01.69-.023.96-.042l-1.246 2.772c.457.29.805.595 1.043.917.238.322.357.65.357.987 0 .215-.028.41-.084.588-.056.177-.168.336-.336.476-.168.14-.4.264-.7.37-.3.108-.69.204-1.176.288-.047-.224-.11-.443-.19-.658-.078-.215-.188-.415-.328-.602.663.065 1.127.023 1.393-.126.266-.15.366-.34.3-.574-.055-.196-.188-.425-.398-.686-.21-.26-.478-.523-.805-.784l.574-2.086H58.52v3.052zm-5.292-2.38c-.373 0-.7.002-.98.007-.28.004-.527.01-.742.02-.215.01-.406.02-.574.035-.168.014-.327.03-.476.05v-1.01c.15.02.308.034.476.043.168.01.362.02.58.028.22.01.47.016.75.02.28.006.602.008.966.008 0-.523-.028-.91-.084-1.162.4.037.83.05 1.288.042.13-.01.203.005.217.042.013.037-.03.107-.134.21-.13.13-.21.42-.238.868.616 0 1.104-.007 1.463-.02.36-.015.67-.04.932-.078v1.008c-.26-.037-.572-.063-.93-.077-.36-.014-.848-.026-1.464-.035v1.064c.476-.01.863-.02 1.162-.035.3-.013.56-.034.784-.062v.98c-.224-.028-.488-.05-.79-.063-.304-.014-.694-.026-1.17-.035-.01.345-.037.658-.084.938.317 0 .602-.002.854-.007.252-.004.476-.008.672-.013.196-.005.37-.014.525-.028.155-.015.297-.03.428-.05v1.036c-.28-.037-.616-.065-1.008-.084-.392-.02-.938-.028-1.638-.028-.12.43-.287.8-.497 1.113-.21.313-.506.628-.89.945l3.22.014c-.008-.345-.04-.63-.097-.854.27.028.504.047.7.056.196.01.378.01.546 0 .14-.01.217.005.23.042.015.037-.02.09-.104.154-.084.056-.126.163-.126.322v.28c1.083 0 1.948-.005 2.597-.014.65-.01 1.114-.023 1.394-.042-.02.093-.033.245-.042.455-.01.21-.014.46-.014.75v2.14c0 .178-.02.325-.063.442-.042.117-.13.222-.266.315s-.335.182-.596.266c-.26.084-.616.177-1.064.28-.037-.233-.093-.446-.168-.637-.075-.19-.19-.412-.35-.664.317 0 .57-.012.756-.035.187-.022.33-.055.427-.097.098-.042.16-.1.182-.175.023-.075.035-.168.035-.28v-1.82h-2.828v2.996c0 .4.028.79.084 1.162h-1.316c.056-.373.084-.76.084-1.162v-2.996H53.34v3.388h-1.162c.028-.15.047-.294.056-.434.01-.14.014-.29.014-.448v-3.108c-.177.13-.37.266-.574.406-.205.14-.43.29-.672.448-.16-.177-.32-.34-.483-.49-.164-.15-.353-.294-.568-.434.868-.336 1.535-.688 2.002-1.057.467-.37.79-.778.966-1.226-.644.01-1.15.023-1.52.042-.368.02-.687.042-.958.07V13.56c.14.02.292.033.455.042.163.01.35.016.56.02l.72.022c.272.01.584.014.94.014.018-.14.034-.285.048-.434.014-.15.026-.317.035-.504-.504 0-.91.007-1.218.02-.308.015-.58.04-.812.078v-.98c.243.028.52.05.833.063.313.015.72.027 1.225.036v-1.064zm15.33 5.824h-2.45v2.352l2.45-.448v-1.904zm-3.542-5.642c.01-.597-.005-1.115-.042-1.554.215.037.506.063.875.077.368.014.865.02 1.49.02.345 0 .642 0 .89-.006.246-.004.46-.01.643-.02.182-.01.336-.02.462-.028.126-.01.245-.023.357-.042-.02.215-.03.45-.035.707-.005.257-.007.54-.007.847v7.35l.686-.126c-.047.13-.08.29-.098.476-.02.187-.023.37-.014.546l-3.934.868-.51.12c-.183.04-.365.085-.547.132-.182.047-.355.093-.518.14-.163.047-.3.084-.413.112-.02-.215-.06-.45-.126-.707-.065-.257-.14-.478-.224-.665.13.01.28.01.448 0 .168-.01.373-.033.616-.07v-8.176zm3.542-.476h-2.45v2.072h2.45v-2.072zm-2.45 5.18h2.45v-2.17h-2.45v2.17zm7.028-4.172c.728-.028 1.34-.058 1.834-.09.495-.034.854-.07 1.078-.106l-.252 7.322c-.02.448-.05.812-.098 1.092-.047.28-.154.51-.322.693-.168.182-.413.33-.735.448-.32.117-.757.236-1.308.357-.037-.27-.114-.54-.23-.812-.118-.27-.27-.513-.456-.728.4.056.728.075.98.056.252-.02.453-.082.602-.19.15-.106.254-.26.315-.46.06-.202.096-.456.105-.764l.21-5.852-1.764.084c-.037.86-.08 1.577-.126 2.156-.047.58-.098 1.055-.154 1.428-.093.588-.198 1.113-.315 1.575-.118.462-.267.896-.45 1.302-.18.406-.412.805-.692 1.197-.28.392-.63.812-1.05 1.26-.168-.177-.38-.334-.637-.47-.256-.134-.515-.23-.776-.286.41-.29.763-.57 1.057-.84.295-.27.547-.572.757-.903.21-.33.387-.705.532-1.12.144-.415.272-.912.384-1.49.093-.468.168-1.023.224-1.667.056-.644.093-1.344.112-2.1-.27.02-.53.047-.777.084-.247.037-.51.084-.79.14L70.35 11.6c.224.01.462.014.714.014.252 0 .55-.005.896-.014l-.028-1.19c-.01-.327-.02-.604-.035-.833-.014-.23-.028-.415-.042-.56-.014-.145-.035-.273-.063-.385.224.084.464.15.72.196.258.047.54.06.848.042.103-.01.166.012.19.063.022.05-.008.142-.092.273-.037.065-.075.15-.112.252-.037.103-.07.212-.098.33-.028.116-.05.235-.063.356-.014.12-.02.23-.02.322-.01.196-.015.387-.015.574 0 .187-.005.37-.014.546zm11.396 5.236v2.044c0 .16.002.343.007.553.004.21.013.428.027.657.014.23.03.455.05.68.018.223.036.433.055.63h-1.498c.02-.17.035-.365.05-.59l.04-.685c.015-.233.027-.46.036-.68.01-.218.014-.407.014-.566v-2.044h-3.248v.994h-1.288c.028-.3.05-.646.07-1.043.02-.397.028-.744.028-1.043v-3.024c0-.243-.01-.5-.028-.77-.02-.27-.042-.495-.07-.672.345.047.894.082 1.645.105.75.022 1.715.04 2.89.048v-.658c0-.327 0-.604-.006-.833-.005-.23-.014-.425-.028-.588-.015-.164-.03-.297-.043-.4-.014-.103-.035-.19-.063-.266.26.028.51.05.75.063.237.014.482.02.734.02.112 0 .175.017.19.05.013.033-.036.1-.148.203-.112.103-.168.36-.168.77v1.638c1.232-.01 2.233-.026 3.003-.05.77-.022 1.328-.057 1.673-.104-.01.093-.02.212-.028.357-.01.146-.016.297-.02.456-.006.16-.01.32-.015.483-.005.162-.007.305-.007.426v2.688c0 .28.007.61.02.987.015.38.03.717.05 1.016h-1.33v-.854h-3.346zm3.346-1.05v-3.304h-3.346v3.304h3.346zm-4.564 0v-3.304h-3.248v3.304h3.248z" fill="#fff"/></g></g></svg>